<mxfile host="app.diagrams.net" agent="Mozilla/5.0 (Macintosh; Intel Mac OS X 10_15_7) AppleWebKit/537.36 (KHTML, like Gecko) Chrome/131.0.0.0 Safari/537.36" version="25.0.3">
  <diagram id="C5RBs43oDa-KdzZeNtuy" name="Page-1">
    <mxGraphModel dx="980" dy="703" grid="0" gridSize="10" guides="1" tooltips="1" connect="1" arrows="1" fold="1" page="1" pageScale="1" pageWidth="827" pageHeight="1169" math="0" shadow="0">
      <root>
        <mxCell id="WIyWlLk6GJQsqaUBKTNV-0" />
        <mxCell id="WIyWlLk6GJQsqaUBKTNV-1" parent="WIyWlLk6GJQsqaUBKTNV-0" />
        <mxCell id="GCSspHkrRmtAStwOXZ1o-15" style="edgeStyle=orthogonalEdgeStyle;rounded=0;orthogonalLoop=1;jettySize=auto;html=1;exitX=1;exitY=0.5;exitDx=0;exitDy=0;entryX=0;entryY=0.5;entryDx=0;entryDy=0;" edge="1" parent="WIyWlLk6GJQsqaUBKTNV-1" source="WIyWlLk6GJQsqaUBKTNV-3" target="GCSspHkrRmtAStwOXZ1o-0">
          <mxGeometry relative="1" as="geometry" />
        </mxCell>
        <mxCell id="GCSspHkrRmtAStwOXZ1o-16" style="edgeStyle=orthogonalEdgeStyle;rounded=0;orthogonalLoop=1;jettySize=auto;html=1;exitX=1;exitY=0.5;exitDx=0;exitDy=0;entryX=0;entryY=0.5;entryDx=0;entryDy=0;" edge="1" parent="WIyWlLk6GJQsqaUBKTNV-1" source="WIyWlLk6GJQsqaUBKTNV-3" target="GCSspHkrRmtAStwOXZ1o-3">
          <mxGeometry relative="1" as="geometry" />
        </mxCell>
        <mxCell id="GCSspHkrRmtAStwOXZ1o-17" style="edgeStyle=orthogonalEdgeStyle;rounded=0;orthogonalLoop=1;jettySize=auto;html=1;exitX=1;exitY=0.5;exitDx=0;exitDy=0;entryX=0;entryY=0.5;entryDx=0;entryDy=0;" edge="1" parent="WIyWlLk6GJQsqaUBKTNV-1" source="WIyWlLk6GJQsqaUBKTNV-3" target="GCSspHkrRmtAStwOXZ1o-6">
          <mxGeometry relative="1" as="geometry" />
        </mxCell>
        <mxCell id="GCSspHkrRmtAStwOXZ1o-45" style="edgeStyle=orthogonalEdgeStyle;rounded=0;orthogonalLoop=1;jettySize=auto;html=1;exitX=0;exitY=0.5;exitDx=0;exitDy=0;entryX=0.5;entryY=1;entryDx=0;entryDy=0;" edge="1" parent="WIyWlLk6GJQsqaUBKTNV-1" source="WIyWlLk6GJQsqaUBKTNV-3" target="GCSspHkrRmtAStwOXZ1o-13">
          <mxGeometry relative="1" as="geometry" />
        </mxCell>
        <mxCell id="GCSspHkrRmtAStwOXZ1o-46" style="edgeStyle=orthogonalEdgeStyle;rounded=0;orthogonalLoop=1;jettySize=auto;html=1;exitX=0;exitY=0.5;exitDx=0;exitDy=0;entryX=0.5;entryY=0;entryDx=0;entryDy=0;" edge="1" parent="WIyWlLk6GJQsqaUBKTNV-1" source="WIyWlLk6GJQsqaUBKTNV-3" target="GCSspHkrRmtAStwOXZ1o-14">
          <mxGeometry relative="1" as="geometry" />
        </mxCell>
        <mxCell id="WIyWlLk6GJQsqaUBKTNV-3" value="场景元模型" style="rounded=1;whiteSpace=wrap;html=1;fontSize=12;glass=0;strokeWidth=1;shadow=0;" parent="WIyWlLk6GJQsqaUBKTNV-1" vertex="1">
          <mxGeometry x="310" y="230" width="90" height="40" as="geometry" />
        </mxCell>
        <mxCell id="GCSspHkrRmtAStwOXZ1o-18" style="edgeStyle=orthogonalEdgeStyle;rounded=0;orthogonalLoop=1;jettySize=auto;html=1;exitX=1;exitY=0.5;exitDx=0;exitDy=0;entryX=0;entryY=0.5;entryDx=0;entryDy=0;" edge="1" parent="WIyWlLk6GJQsqaUBKTNV-1" source="GCSspHkrRmtAStwOXZ1o-0" target="GCSspHkrRmtAStwOXZ1o-1">
          <mxGeometry relative="1" as="geometry" />
        </mxCell>
        <mxCell id="GCSspHkrRmtAStwOXZ1o-19" style="edgeStyle=orthogonalEdgeStyle;rounded=0;orthogonalLoop=1;jettySize=auto;html=1;exitX=1;exitY=0.5;exitDx=0;exitDy=0;entryX=0;entryY=0.5;entryDx=0;entryDy=0;" edge="1" parent="WIyWlLk6GJQsqaUBKTNV-1" source="GCSspHkrRmtAStwOXZ1o-0" target="GCSspHkrRmtAStwOXZ1o-2">
          <mxGeometry relative="1" as="geometry" />
        </mxCell>
        <mxCell id="GCSspHkrRmtAStwOXZ1o-0" value="场景定义" style="rounded=1;whiteSpace=wrap;html=1;fontSize=12;glass=0;strokeWidth=1;shadow=0;" vertex="1" parent="WIyWlLk6GJQsqaUBKTNV-1">
          <mxGeometry x="460" y="120" width="83" height="40" as="geometry" />
        </mxCell>
        <mxCell id="GCSspHkrRmtAStwOXZ1o-1" value="场景名称" style="rounded=1;whiteSpace=wrap;html=1;fontSize=12;glass=0;strokeWidth=1;shadow=0;dashed=1;" vertex="1" parent="WIyWlLk6GJQsqaUBKTNV-1">
          <mxGeometry x="580" y="100" width="90" height="30" as="geometry" />
        </mxCell>
        <mxCell id="GCSspHkrRmtAStwOXZ1o-2" value="场景描述" style="rounded=1;whiteSpace=wrap;html=1;fontSize=12;glass=0;strokeWidth=1;shadow=0;dashed=1;" vertex="1" parent="WIyWlLk6GJQsqaUBKTNV-1">
          <mxGeometry x="580" y="150" width="90" height="30" as="geometry" />
        </mxCell>
        <mxCell id="GCSspHkrRmtAStwOXZ1o-20" style="edgeStyle=orthogonalEdgeStyle;rounded=0;orthogonalLoop=1;jettySize=auto;html=1;exitX=1;exitY=0.5;exitDx=0;exitDy=0;entryX=0;entryY=0.5;entryDx=0;entryDy=0;" edge="1" parent="WIyWlLk6GJQsqaUBKTNV-1" source="GCSspHkrRmtAStwOXZ1o-3" target="GCSspHkrRmtAStwOXZ1o-9">
          <mxGeometry relative="1" as="geometry" />
        </mxCell>
        <mxCell id="GCSspHkrRmtAStwOXZ1o-22" style="edgeStyle=orthogonalEdgeStyle;rounded=0;orthogonalLoop=1;jettySize=auto;html=1;exitX=1;exitY=0.5;exitDx=0;exitDy=0;entryX=0;entryY=0.5;entryDx=0;entryDy=0;" edge="1" parent="WIyWlLk6GJQsqaUBKTNV-1" source="GCSspHkrRmtAStwOXZ1o-3" target="GCSspHkrRmtAStwOXZ1o-10">
          <mxGeometry relative="1" as="geometry" />
        </mxCell>
        <mxCell id="GCSspHkrRmtAStwOXZ1o-3" value="对象" style="rounded=1;whiteSpace=wrap;html=1;fontSize=12;glass=0;strokeWidth=1;shadow=0;" vertex="1" parent="WIyWlLk6GJQsqaUBKTNV-1">
          <mxGeometry x="460" y="230" width="83" height="40" as="geometry" />
        </mxCell>
        <mxCell id="GCSspHkrRmtAStwOXZ1o-23" style="edgeStyle=orthogonalEdgeStyle;rounded=0;orthogonalLoop=1;jettySize=auto;html=1;exitX=1;exitY=0.5;exitDx=0;exitDy=0;entryX=0;entryY=0.5;entryDx=0;entryDy=0;" edge="1" parent="WIyWlLk6GJQsqaUBKTNV-1" source="GCSspHkrRmtAStwOXZ1o-6" target="GCSspHkrRmtAStwOXZ1o-11">
          <mxGeometry relative="1" as="geometry" />
        </mxCell>
        <mxCell id="GCSspHkrRmtAStwOXZ1o-24" style="edgeStyle=orthogonalEdgeStyle;rounded=0;orthogonalLoop=1;jettySize=auto;html=1;exitX=1;exitY=0.5;exitDx=0;exitDy=0;entryX=0;entryY=0.5;entryDx=0;entryDy=0;" edge="1" parent="WIyWlLk6GJQsqaUBKTNV-1" source="GCSspHkrRmtAStwOXZ1o-6" target="GCSspHkrRmtAStwOXZ1o-12">
          <mxGeometry relative="1" as="geometry" />
        </mxCell>
        <mxCell id="GCSspHkrRmtAStwOXZ1o-6" value="行为" style="rounded=1;whiteSpace=wrap;html=1;fontSize=12;glass=0;strokeWidth=1;shadow=0;" vertex="1" parent="WIyWlLk6GJQsqaUBKTNV-1">
          <mxGeometry x="460" y="350" width="83" height="40" as="geometry" />
        </mxCell>
        <mxCell id="GCSspHkrRmtAStwOXZ1o-9" value="名称" style="rounded=1;whiteSpace=wrap;html=1;fontSize=12;glass=0;strokeWidth=1;shadow=0;dashed=1;" vertex="1" parent="WIyWlLk6GJQsqaUBKTNV-1">
          <mxGeometry x="580" y="210" width="90" height="30" as="geometry" />
        </mxCell>
        <mxCell id="GCSspHkrRmtAStwOXZ1o-10" value="属性" style="rounded=1;whiteSpace=wrap;html=1;fontSize=12;glass=0;strokeWidth=1;shadow=0;dashed=1;" vertex="1" parent="WIyWlLk6GJQsqaUBKTNV-1">
          <mxGeometry x="580" y="260" width="90" height="30" as="geometry" />
        </mxCell>
        <mxCell id="GCSspHkrRmtAStwOXZ1o-11" value="原子行为" style="rounded=1;whiteSpace=wrap;html=1;fontSize=12;glass=0;strokeWidth=1;shadow=0;dashed=1;" vertex="1" parent="WIyWlLk6GJQsqaUBKTNV-1">
          <mxGeometry x="580" y="330" width="90" height="30" as="geometry" />
        </mxCell>
        <mxCell id="GCSspHkrRmtAStwOXZ1o-12" value="行为集合" style="rounded=1;whiteSpace=wrap;html=1;fontSize=12;glass=0;strokeWidth=1;shadow=0;dashed=1;" vertex="1" parent="WIyWlLk6GJQsqaUBKTNV-1">
          <mxGeometry x="580" y="380" width="90" height="30" as="geometry" />
        </mxCell>
        <mxCell id="GCSspHkrRmtAStwOXZ1o-30" style="edgeStyle=orthogonalEdgeStyle;rounded=0;orthogonalLoop=1;jettySize=auto;html=1;exitX=0;exitY=0.5;exitDx=0;exitDy=0;entryX=1;entryY=0.75;entryDx=0;entryDy=0;" edge="1" parent="WIyWlLk6GJQsqaUBKTNV-1" source="GCSspHkrRmtAStwOXZ1o-13" target="GCSspHkrRmtAStwOXZ1o-25">
          <mxGeometry relative="1" as="geometry" />
        </mxCell>
        <mxCell id="GCSspHkrRmtAStwOXZ1o-31" style="edgeStyle=orthogonalEdgeStyle;rounded=0;orthogonalLoop=1;jettySize=auto;html=1;exitX=0;exitY=0.5;exitDx=0;exitDy=0;entryX=1;entryY=0.5;entryDx=0;entryDy=0;" edge="1" parent="WIyWlLk6GJQsqaUBKTNV-1" source="GCSspHkrRmtAStwOXZ1o-13" target="GCSspHkrRmtAStwOXZ1o-26">
          <mxGeometry relative="1" as="geometry" />
        </mxCell>
        <mxCell id="GCSspHkrRmtAStwOXZ1o-33" style="edgeStyle=orthogonalEdgeStyle;rounded=0;orthogonalLoop=1;jettySize=auto;html=1;exitX=0;exitY=0.5;exitDx=0;exitDy=0;entryX=1;entryY=0.5;entryDx=0;entryDy=0;" edge="1" parent="WIyWlLk6GJQsqaUBKTNV-1" source="GCSspHkrRmtAStwOXZ1o-13" target="GCSspHkrRmtAStwOXZ1o-27">
          <mxGeometry relative="1" as="geometry" />
        </mxCell>
        <mxCell id="GCSspHkrRmtAStwOXZ1o-34" style="edgeStyle=orthogonalEdgeStyle;rounded=0;orthogonalLoop=1;jettySize=auto;html=1;exitX=0;exitY=0.5;exitDx=0;exitDy=0;entryX=1;entryY=0.5;entryDx=0;entryDy=0;" edge="1" parent="WIyWlLk6GJQsqaUBKTNV-1" source="GCSspHkrRmtAStwOXZ1o-13" target="GCSspHkrRmtAStwOXZ1o-28">
          <mxGeometry relative="1" as="geometry" />
        </mxCell>
        <mxCell id="GCSspHkrRmtAStwOXZ1o-13" value="控制结构" style="rounded=1;whiteSpace=wrap;html=1;fontSize=12;glass=0;strokeWidth=1;shadow=0;" vertex="1" parent="WIyWlLk6GJQsqaUBKTNV-1">
          <mxGeometry x="210" y="120" width="83" height="40" as="geometry" />
        </mxCell>
        <mxCell id="GCSspHkrRmtAStwOXZ1o-38" style="edgeStyle=orthogonalEdgeStyle;rounded=0;orthogonalLoop=1;jettySize=auto;html=1;exitX=0;exitY=0.5;exitDx=0;exitDy=0;entryX=1;entryY=0.5;entryDx=0;entryDy=0;" edge="1" parent="WIyWlLk6GJQsqaUBKTNV-1" source="GCSspHkrRmtAStwOXZ1o-14" target="GCSspHkrRmtAStwOXZ1o-35">
          <mxGeometry relative="1" as="geometry" />
        </mxCell>
        <mxCell id="GCSspHkrRmtAStwOXZ1o-39" style="edgeStyle=orthogonalEdgeStyle;rounded=0;orthogonalLoop=1;jettySize=auto;html=1;exitX=0;exitY=0.5;exitDx=0;exitDy=0;entryX=1;entryY=0.5;entryDx=0;entryDy=0;" edge="1" parent="WIyWlLk6GJQsqaUBKTNV-1" source="GCSspHkrRmtAStwOXZ1o-14" target="GCSspHkrRmtAStwOXZ1o-36">
          <mxGeometry relative="1" as="geometry" />
        </mxCell>
        <mxCell id="GCSspHkrRmtAStwOXZ1o-40" style="edgeStyle=orthogonalEdgeStyle;rounded=0;orthogonalLoop=1;jettySize=auto;html=1;exitX=0;exitY=0.5;exitDx=0;exitDy=0;entryX=1;entryY=0.5;entryDx=0;entryDy=0;" edge="1" parent="WIyWlLk6GJQsqaUBKTNV-1" source="GCSspHkrRmtAStwOXZ1o-14" target="GCSspHkrRmtAStwOXZ1o-37">
          <mxGeometry relative="1" as="geometry" />
        </mxCell>
        <mxCell id="GCSspHkrRmtAStwOXZ1o-14" value="异常场景" style="rounded=1;whiteSpace=wrap;html=1;fontSize=12;glass=0;strokeWidth=1;shadow=0;" vertex="1" parent="WIyWlLk6GJQsqaUBKTNV-1">
          <mxGeometry x="210" y="325" width="83" height="40" as="geometry" />
        </mxCell>
        <mxCell id="GCSspHkrRmtAStwOXZ1o-25" value="顺序" style="rounded=1;whiteSpace=wrap;html=1;fontSize=12;glass=0;strokeWidth=1;shadow=0;gradientColor=none;fillColor=default;dashed=1;" vertex="1" parent="WIyWlLk6GJQsqaUBKTNV-1">
          <mxGeometry x="80" y="50" width="90" height="30" as="geometry" />
        </mxCell>
        <mxCell id="GCSspHkrRmtAStwOXZ1o-26" value="分支" style="rounded=1;whiteSpace=wrap;html=1;fontSize=12;glass=0;strokeWidth=1;shadow=0;dashed=1;" vertex="1" parent="WIyWlLk6GJQsqaUBKTNV-1">
          <mxGeometry x="80" y="100" width="90" height="30" as="geometry" />
        </mxCell>
        <mxCell id="GCSspHkrRmtAStwOXZ1o-27" value="并行" style="rounded=1;whiteSpace=wrap;html=1;fontSize=12;glass=0;strokeWidth=1;shadow=0;dashed=1;" vertex="1" parent="WIyWlLk6GJQsqaUBKTNV-1">
          <mxGeometry x="80" y="150" width="90" height="30" as="geometry" />
        </mxCell>
        <mxCell id="GCSspHkrRmtAStwOXZ1o-28" value="循环" style="rounded=1;whiteSpace=wrap;html=1;fontSize=12;glass=0;strokeWidth=1;shadow=0;dashed=1;" vertex="1" parent="WIyWlLk6GJQsqaUBKTNV-1">
          <mxGeometry x="80" y="200" width="90" height="30" as="geometry" />
        </mxCell>
        <mxCell id="GCSspHkrRmtAStwOXZ1o-35" value="异常原因" style="rounded=1;whiteSpace=wrap;html=1;fontSize=12;glass=0;strokeWidth=1;shadow=0;dashed=1;" vertex="1" parent="WIyWlLk6GJQsqaUBKTNV-1">
          <mxGeometry x="80" y="270" width="90" height="30" as="geometry" />
        </mxCell>
        <mxCell id="GCSspHkrRmtAStwOXZ1o-36" value="检测方式" style="rounded=1;whiteSpace=wrap;html=1;fontSize=12;glass=0;strokeWidth=1;shadow=0;dashed=1;" vertex="1" parent="WIyWlLk6GJQsqaUBKTNV-1">
          <mxGeometry x="80" y="330" width="90" height="30" as="geometry" />
        </mxCell>
        <mxCell id="GCSspHkrRmtAStwOXZ1o-37" value="处理策略" style="rounded=1;whiteSpace=wrap;html=1;fontSize=12;glass=0;strokeWidth=1;shadow=0;dashed=1;" vertex="1" parent="WIyWlLk6GJQsqaUBKTNV-1">
          <mxGeometry x="80" y="390" width="90" height="30" as="geometry" />
        </mxCell>
      </root>
    </mxGraphModel>
  </diagram>
</mxfile>
